# xmcd
#
# Track frame offsets: 
#        150
#        13695
#        27493
#        46951
#        63767
#        83240
#        108543
#        124631
#        147861
#        164903
#        182231
#
# Disc length: 2642 seconds
#
# Revision: 0
# Processed by: cddbd v1.5.2PL0 Copyright (c) Steve Scherf et al.
# Submitted via: ExactAudioCopy v1.0b3
#
DISCID=970a500b
DTITLE=Alicia Bridges - FauxDiva XX
DYEAR=1900
DGENRE=
TTITLE0=Body Heat
TTITLE1=Self Applause
TTITLE2=Golden Boy
TTITLE3=City Rhythm
TTITLE4=We Are One
TTITLE5=I Love the Nightlife
TTITLE6=Love Me Now Till the Morning
TTITLE7=High Altitudes
TTITLE8=Break Away
TTITLE9=Picture of Success
TTITLE10=Just a Little Lovin'
EXTD=
EXTT0=
EXTT1=
EXTT2=
EXTT3=
EXTT4=
EXTT5=
EXTT6=
EXTT7=
EXTT8=
EXTT9=
EXTT10=
PLAYORDER=
